<?xml version="1.0" encoding="utf-8" ?><svg xmlns="http://www.w3.org/2000/svg" xmlns:xlink="http://www.w3.org/1999/xlink" width="2006" height="614" viewBox="0 0 2006 614"><defs><linearGradient id="gradient_0" gradientUnits="userSpaceOnUse" x1="104.10145" y1="294.86945" x2="108.02119" y2="145.87933"><stop offset="0" stop-color="#A12728"/><stop offset="1" stop-color="#D16E3A"/></linearGradient></defs><path fill="url(#gradient_0)" transform="scale(2 2)" d="M105.883 145.147C122.946 144.841 140.116 152.962 149.256 167.648C152.497 172.891 154.733 178.691 155.848 184.752C157.194 191.823 157.498 201.161 157.363 208.454C156.86 235.541 161.678 271.527 134.8 288.325C112.337 301.563 77.2737 298.66 62.7682 274.714C56.6673 264.643 60.7558 255.937 74.0782 256.031C76.8584 256.05 79.8178 261.211 81.1566 263.721C89.9786 279.996 114.654 281.044 126.826 268.07C137.135 257.083 136.964 240.836 136.475 226.738C135.041 228.664 133.574 230.591 132.053 232.452C117.712 250.153 88.6079 248.412 72.5527 234.171C52.1913 216.109 49.5718 183.329 67.5322 162.649C78.0855 150.498 90.229 146.273 105.883 145.147ZM107.986 225.785C124.713 224.995 137.642 210.815 136.885 194.091C136.127 177.366 121.97 164.413 105.24 165.137C88.4639 165.863 75.4632 180.066 76.2227 196.836C76.9821 213.607 91.2133 226.577 107.986 225.785Z"/><defs><linearGradient id="gradient_1" gradientUnits="userSpaceOnUse" x1="487.59552" y1="289.08728" x2="463.97696" y2="98.092018"><stop offset="0" stop-color="#A12225"/><stop offset="1" stop-color="#D97B3C"/></linearGradient></defs><path fill="url(#gradient_1)" transform="scale(2 2)" d="M510.316 92.2791C539.918 92.1504 554.21 107.456 556.049 136.752C557.178 154.724 556.002 173.008 556.381 191.033C556.67 204.744 556.558 218.604 556.35 232.31C556.062 240.205 554.062 243.429 545.68 243.831C539.736 244.116 535.79 241.08 535.459 234.901C534.881 224.124 534.95 213.207 534.967 202.386L534.922 143.795C534.848 133.289 534.517 123.634 526.445 115.689C518.324 107.694 505.967 108.396 498.25 116.571C490.39 124.897 489.02 136.436 489.237 147.377C494.223 147.48 515.179 145.708 517.486 149.653C529.27 169.804 499.306 165.611 488.37 165.604C488.129 175.083 488.533 186.309 488.625 195.873C488.913 204.529 488.679 213.783 488.762 222.56C488.926 242.619 489.766 262.677 476.754 279.394C456.362 305.593 406.197 300.012 397.455 265.92C397.04 264.302 398.534 260.645 399.936 259.556C414.005 248.63 417.484 263.086 424.927 271.788C428.265 275.613 435.848 276.995 440.359 276.913C470.136 276.377 467.756 240.836 467.815 219.924L467.922 179.903C467.829 164.695 466.997 138.128 470.957 123.676C473.015 116.172 476.861 109.278 482.166 103.584C490.29 94.9726 498.917 92.5974 510.316 92.2791Z"/><defs><linearGradient id="gradient_2" gradientUnits="userSpaceOnUse" x1="621.59943" y1="243.73914" x2="626.70465" y2="146.52112"><stop offset="0" stop-color="#AD312B"/><stop offset="1" stop-color="#C35A32"/></linearGradient></defs><path fill="url(#gradient_2)" transform="scale(2 2)" d="M615.284 146.084C633.298 144.871 649.344 147.365 662.204 161.524C676.182 176.912 675.114 195.79 674.867 215.137C674.748 224.452 675.153 234.233 674.61 243.716C659.473 244.132 653.913 244.212 653.179 227.388C649.1 232.322 646.875 234.655 641.813 238.531C626.685 248.707 604.578 246.278 590.635 235.097C556.82 207.981 570.523 151.144 615.284 146.084ZM625.651 225.712C642.456 224.341 654.952 209.584 653.531 192.787C652.11 175.99 637.312 163.541 620.516 165.012C603.789 166.477 591.402 181.195 592.817 197.922C594.232 214.648 608.917 227.077 625.651 225.712Z"/><defs><linearGradient id="gradient_3" gradientUnits="userSpaceOnUse" x1="325.93134" y1="244.8445" x2="335.7908" y2="146.82312"><stop offset="0" stop-color="#B5422F"/><stop offset="1" stop-color="#CD6B38"/></linearGradient></defs><path fill="url(#gradient_3)" transform="scale(2 2)" d="M321.723 146.1C330.174 144.945 339.123 145.947 346.681 148.564C377.59 159.269 381.205 187.073 379.442 215.533C379.009 222.518 380.674 239.331 379.426 242.815C378.024 243.877 376.558 244.247 374.831 244.195C359.212 243.723 358.47 240.424 358.421 227.16C355.272 231.91 351.594 235.054 347.231 238.549C331.719 250.246 310.271 246.64 295.812 235.13C274.17 217.901 272.836 183.981 289.399 162.892C297.085 153.105 309.566 147.429 321.723 146.1ZM332.236 225.679C348.924 223.754 360.892 208.669 358.967 191.985C357.043 175.301 341.955 163.335 325.267 165.258C308.578 167.181 296.608 182.267 298.533 198.952C300.457 215.638 315.547 227.604 332.236 225.679Z"/><defs><linearGradient id="gradient_4" gradientUnits="userSpaceOnUse" x1="822.03687" y1="244.37445" x2="828.43805" y2="145.67468"><stop offset="0" stop-color="#AC2F2A"/><stop offset="1" stop-color="#C45B32"/></linearGradient></defs><path fill="url(#gradient_4)" transform="scale(2 2)" d="M780.439 217.763C760.954 175.12 801.061 132.108 843.235 147.874C855.816 152.571 866.026 162.054 871.636 174.252C877.201 186.518 878.073 200.237 873.262 212.913C872.252 215.618 871.01 218.232 869.55 220.724C864.457 227.793 860.592 232.929 853.106 237.604C837.194 247.541 821.248 247.873 804.147 240.978C792.391 234.22 787.554 229.405 780.439 217.763ZM853.899 185.665C849.041 162.587 816.916 156.389 802.347 176.185C792.538 189.277 795.57 210.955 808.91 220.924C814.816 225.419 822.297 227.32 829.633 226.188C849.356 223.186 858.059 203.843 853.899 185.665Z"/><path fill="#E0C2BB" fill-opacity="0.12941177" transform="scale(2 2)" d="M802.347 176.185C816.916 156.389 849.041 162.587 853.899 185.665L850.85 192.113C849.334 190.121 848.429 187.159 847.47 184.705C845.488 179.633 841.522 176.525 837.563 172.722C818.483 167.718 809.22 179.363 805.53 178.538C805.109 177.461 804.873 176.857 804.297 175.853C803.299 176.515 803.71 176.365 802.347 176.185Z"/><defs><linearGradient id="gradient_5" gradientUnits="userSpaceOnUse" x1="217.29079" y1="243.81725" x2="221.2644" y2="106.56567"><stop offset="0" stop-color="#B4432F"/><stop offset="1" stop-color="#DA7E3E"/></linearGradient></defs><path fill="url(#gradient_5)" transform="scale(2 2)" d="M193.959 104.303C193.996 104.334 194.038 104.359 194.07 104.394C195.523 105.99 194.847 154.973 194.927 161.063C202.495 148.748 214.96 145.173 228.546 145.91C238.672 146.459 247.334 150.378 254.141 158.025C267.6 173.145 264.038 196.395 264.419 214.996C264.49 223.961 264.754 234.197 264.328 243.006C244.423 246.909 242.864 240.375 243.138 222.083C243.256 214.24 243.134 206.093 243.286 198.209C243.395 192.542 243.308 186.909 242.133 181.353C240.504 176.733 238.88 172.486 234.821 169.253C224.935 161.383 208.861 163.715 201.117 173.628C192.098 185.175 195.462 202.316 194.78 215.983C194.552 220.557 194.842 225.549 194.8 230.155C194.759 234.619 194.719 239.763 195.279 244.127C184.75 244.344 174.406 246.293 173.948 232.535C173.296 212.981 173.829 193.537 173.826 173.977L173.821 139.963C173.826 133.559 173.608 125.363 174.19 119.157C179.597 112.381 186.276 108.127 193.959 104.303Z"/><defs><linearGradient id="gradient_6" gradientUnits="userSpaceOnUse" x1="727.54889" y1="242.85289" x2="725.75519" y2="146.99083"><stop offset="0" stop-color="#AE2F2B"/><stop offset="1" stop-color="#C35C32"/></linearGradient></defs><path fill="url(#gradient_6)" transform="scale(2 2)" d="M726.452 220.417L742.593 178.452C745.916 169.821 748.855 162.327 752.732 153.974C756.459 145.942 774.765 144.822 776.693 148.429C776.104 154.715 761.283 185.453 758.386 194.417C751.031 208.126 745.798 231.735 734.574 241.658C733.994 241.952 732.42 242.703 732 243.051C719.135 247.278 713.159 240.083 708.01 229.597C702.174 215.091 694.789 195.863 688.454 181.984C686.526 175.112 674.289 151.898 676.36 148.159C681.533 145.11 696.144 146.8 699.367 153.502C703.286 161.65 706.422 169.836 709.714 178.244C715.183 192.345 720.762 206.404 726.452 220.417Z"/><defs><linearGradient id="gradient_7" gradientUnits="userSpaceOnUse" x1="218.04448" y1="132.82027" x2="221.39349" y2="63.050968"><stop offset="0" stop-color="#B14531"/><stop offset="1" stop-color="#DF803D"/></linearGradient></defs><path fill="url(#gradient_7)" transform="scale(2 2)" d="M218.635 73.8106C203.953 83.0931 189.618 93.3621 175.336 103.266C167.427 108.75 141.97 128.268 134.84 129.967C133.953 130.178 133.051 129.913 132.294 129.432C130.947 128.577 129.777 126.868 129.467 125.303C129.186 123.878 129.486 122.923 130.332 121.777C133.447 117.554 202.862 70.8746 211.409 65.624C213.378 64.4143 216.197 62.5046 218.523 62.2923C223.736 61.8165 244.512 77.8778 249.227 81.6983C248.983 69.89 247.583 64.4436 262.482 64.8095C268.165 64.9491 276.965 63.6956 281.53 67.7284C283.297 69.2892 282.606 79.4063 282.623 82.3266C282.716 89.3665 282.884 96.4053 283.129 103.442C287.571 107.136 294.579 111.406 299.404 114.567C314.083 124.182 309.408 136.687 293.397 125.665C286.085 120.631 278.478 115.374 271.469 109.745C271.211 103.847 271.177 98.9595 271.308 93.0546C268.316 92.9997 262.649 92.4838 260.283 93.9809C259.949 96.7583 255.896 99.4712 252.797 97.4843C241.136 90.0077 230.368 81.2256 218.635 73.8106Z"/><path fill="#E0C2BB" transform="scale(2 2)" d="M260.572 75.3007C264.658 74.8805 267.684 75.1611 271.647 75.7916C271.994 81.1961 271.771 87.6688 271.308 93.0546C268.316 92.9997 262.649 92.4838 260.283 93.9809C260.671 88.3178 260.529 81.0804 260.572 75.3007Z"/><path fill="#B94C2F" transform="scale(2 2)" d="M436.353 145.599C439.021 145.398 441.698 145.34 444.373 145.427C451.004 145.698 455.752 149.175 455.022 156.323C453.987 166.455 443.325 164.08 436.304 165.396C432.215 166.12 428.395 167.924 425.237 170.621C410.709 183.203 419.695 220.71 416.231 237.93C415.922 239.467 414.215 240.769 413.044 241.773C408.263 245.049 401.705 244.093 395.838 243.922C395.394 229.264 395.916 214.225 395.553 199.68C394.834 170.815 405.042 149.622 436.353 145.599Z"/><path fill="#B94C2F" transform="scale(2 2)" d="M893.387 244.317C891.915 244.357 890.575 244.521 889.25 243.877C886.579 236.224 889.145 199.787 888.658 189.872C889.528 173.584 896.763 158.92 910.898 150.695C921.141 144.734 952.659 138.675 946.43 159.164C938.603 170.659 920.661 158.106 912.511 178.073C907.418 190.308 910.134 206.277 909.447 219.428C909.162 224.876 909.978 231.107 909.145 236.481C907.997 239.007 907.3 240.11 905.271 242.067C901.321 244.319 897.927 244.08 893.387 244.317Z"/><path fill="#E0C2BB" fill-opacity="0.094117649" transform="scale(2 2)" d="M869.55 220.724L869.764 220.782C871.942 221.372 872.066 220.614 873.817 222.827C875.004 224.327 873.006 228.249 871.967 229.217C872.22 227.558 872.675 225.93 871.927 224.46L871.009 223.902C868.686 224.516 864.467 230.56 863.447 232.771L863.682 233.447C864.91 233.259 865.582 233.09 866.803 233.313C860.434 236.899 861.808 236.391 857.918 243.502C860.078 243.805 861.739 243.442 863.356 244.351C859.96 245.797 855.852 245.952 852.429 247.136C845.151 249.654 838.857 253.005 831.046 253.857C827.764 254.214 825.443 251.536 823.538 252.07C825.074 253.525 826.81 254.756 829.001 254.562C827.408 256.487 817.946 254.525 815.544 253.682L815.933 252.617C814.483 251.051 807.133 251.904 803.793 250.675C800.352 249.408 797.04 245.777 795.534 245.38L799.091 245.158L803.658 244.627L803.576 244.276L804.517 244.493L803.147 243.844L803.673 243.106C804.508 243.161 804.707 243.058 805.498 242.824L803.821 241.708L804.147 240.978C821.248 247.873 837.194 247.541 853.106 237.604C860.592 232.929 864.457 227.793 869.55 220.724Z"/><path fill="#D87A3D" transform="scale(2 2)" d="M263.778 7.30202C263.611 8.15064 263.47 9.02645 263.291 9.87127C258.857 30.8173 287.05 38.9802 265.279 58.6546C265.624 52.6183 266.022 48.1218 263.274 42.4677C262.58 40.8253 261.916 39.9077 260.937 38.442C259.987 36.8848 258.904 35.4018 257.85 33.9116C252.353 21.6206 253.934 16.343 263.778 7.30202Z"/><path fill="#E0C2BB" fill-opacity="0.23137255" transform="scale(2 2)" d="M946.43 159.164L947.591 159.668C948.135 161.347 948.375 166.347 948.002 168.274L947.474 168.805L945.953 166.421C945.581 166.435 940.597 170.735 939.713 171.481C926.487 182.648 914.62 174.82 914.348 195.625C914.119 194.896 913.615 189.934 913.584 189.911C912.906 189.412 912.475 189.722 911.713 188.827C911.21 185.56 915.099 181.766 912.511 178.073C920.661 158.106 938.603 170.659 946.43 159.164Z"/><path fill="#E0C2BB" fill-opacity="0.11764706" transform="scale(2 2)" d="M758.386 194.417L759.204 194.419C762.177 189.168 764.566 179.706 767.617 174.585L768.048 174.655C768.645 183.993 769.13 188.116 764.195 196.714C764.001 195.778 764.026 195.665 764.351 194.764L763.83 193.046L763.326 192.851C761.745 195.263 763.689 198.447 761.619 200.303C760.832 198.658 761.277 197.81 760.227 195.759C759.475 197.077 754.662 207.38 754.347 208.602L754.652 209.004C756.806 207.287 756.625 204.169 758.517 202.869C759.197 203.942 759.065 204.47 758.98 205.759C756.992 211.071 744.176 243.741 741.016 245.25C740.417 245.537 739.699 245.588 739.046 245.627C737.968 243.816 737.862 243.419 737.872 241.313L737.874 241.124C736.475 241.552 736.044 241.575 734.574 241.658C745.798 231.735 751.031 208.126 758.386 194.417Z"/><path fill="#E7D5D3" fill-opacity="0.023529412" transform="scale(2 2)" d="M912.511 178.073C915.099 181.766 911.21 185.56 911.713 188.827C912.475 189.722 912.906 189.412 913.584 189.911C913.615 189.934 914.119 194.896 914.348 195.625C914.05 197.167 914.313 241.636 914.578 242.438C915.831 242.635 923.825 243.89 924.194 244.437C924.32 244.625 924.395 244.869 924.472 245.079C921.408 245.992 916.819 244.998 913.595 245.247C911.931 245.376 910.732 246.704 909.206 246.296L909.042 245.421C910.913 244.092 912.848 245.443 914.279 244.206C912.924 242.622 907.877 243.087 908.061 241.676C908.396 239.116 911.204 240.091 909.145 236.481C909.978 231.107 909.162 224.876 909.447 219.428C910.134 206.277 907.418 190.308 912.511 178.073Z"/><defs><linearGradient id="gradient_8" gradientUnits="userSpaceOnUse" x1="690.45282" y1="208.45105" x2="701.67511" y2="205.89651"><stop offset="0" stop-color="#E0C5C2" stop-opacity="0"/><stop offset="1" stop-color="#DCBEB8" stop-opacity="0.054901961"/></linearGradient></defs><path fill="url(#gradient_8)" transform="scale(2 2)" d="M688.454 181.984C694.789 195.863 702.174 215.091 708.01 229.597C707.64 231.84 707.564 233.281 707.682 235.552L705.502 233.734L704.692 233.851L703.317 235.826C702.719 234.709 702.06 232.997 701.552 231.79C702.787 231.484 704.017 231.151 705.238 230.792C705.939 228.729 703.501 221.492 700.812 220.314C699.165 221.323 698.931 223.025 698.378 225.021C698.136 224.344 697.914 223.669 697.962 222.932C698.296 217.891 693.778 213.046 692.48 208.526C691.126 203.81 684.874 189.46 686.172 185.362C687.435 184.154 687.69 183.506 688.454 181.984Z"/><path fill="#E0C2BB" fill-opacity="0.12156863" transform="scale(2 2)" d="M780.439 217.763C787.554 229.405 792.391 234.22 804.147 240.978L803.821 241.708L805.498 242.824C804.707 243.058 804.508 243.161 803.673 243.106C801.78 242.933 800.988 242.721 799.581 243.846L799.091 245.158L795.534 245.38C792.659 245.138 789.065 233.316 787.155 233.309C779.042 233.279 774.972 226.371 775.09 219.016C775.109 217.859 778.682 218.476 780.439 217.763Z"/><path fill="#E0C2BB" fill-opacity="0.1254902" transform="scale(2 2)" d="M893.387 244.317C897.927 244.08 901.321 244.319 905.271 242.067C906.91 242.533 907.406 242.682 908.876 243.53C908.272 244.67 906.917 245.385 906.568 246.063C903.04 252.926 904.374 253.202 895.898 252.912C892.801 250.982 890.503 250.058 891.302 246.091C892.133 245.143 892.325 245.004 893.387 244.317Z"/><defs><linearGradient id="gradient_9" gradientUnits="userSpaceOnUse" x1="703.47882" y1="224.82172" x2="700.11273" y2="226.8105"><stop offset="0" stop-color="#DDC2BC" stop-opacity="0.11764706"/><stop offset="1" stop-color="#E1C4C0" stop-opacity="0.14901961"/></linearGradient></defs><path fill="url(#gradient_9)" transform="scale(2 2)" d="M698.378 225.021C698.931 223.025 699.165 221.323 700.812 220.314C703.501 221.492 705.939 228.729 705.238 230.792C704.017 231.151 702.787 231.484 701.552 231.79C701.233 230.254 699.214 226.623 698.378 225.021Z"/><path fill="#E0C2BB" fill-opacity="0.21568628" transform="scale(2 2)" d="M255.854 36.8762C257.748 37.9921 258.772 38.8399 260.937 38.442C261.916 39.9077 262.58 40.8253 263.274 42.4677C262.458 44.9138 262.392 45.7531 262.177 48.3391L261.355 48.2137L262.083 49.2217L262.158 47.9682L262.002 49.1966C259.941 46.993 255.091 39.953 255.854 36.8762Z"/><path fill="#E0C2BB" fill-opacity="0.25490198" transform="scale(2 2)" d="M866.803 233.313C865.582 233.09 864.91 233.259 863.682 233.447L863.447 232.771C864.467 230.56 868.686 224.516 871.009 223.902L871.927 224.46C872.675 225.93 872.22 227.558 871.967 229.217C870.106 231.104 869.196 232.201 866.803 233.313Z"/><path fill="#E0C2BB" fill-opacity="0.14509805" transform="scale(2 2)" d="M758.98 205.759C759.065 204.47 759.197 203.942 758.517 202.869C756.625 204.169 756.806 207.287 754.652 209.004L754.347 208.602C754.662 207.38 759.475 197.077 760.227 195.759C761.277 197.81 760.832 198.658 761.619 200.303C760.632 202.046 759.815 203.933 758.98 205.759Z"/><path fill="#E0C2BB" fill-opacity="0.074509807" transform="scale(2 2)" d="M734.574 241.658C736.044 241.575 736.475 241.552 737.874 241.124L737.872 241.313C737.862 243.419 737.968 243.816 739.046 245.627C737.223 245.551 736.999 246.036 734.195 245.684C732.781 244.774 732.539 244.611 732 243.051C732.42 242.703 733.994 241.952 734.574 241.658Z"/><path fill="#E0C2BB" fill-opacity="0.015686275" transform="scale(2 2)" d="M255.854 36.8762L256.68 36.2384C256.546 35.8122 256.241 35.6556 255.873 35.3639L255.698 35.2265C255.555 34.0952 255.339 33.2542 255.984 32.2389L255.837 32.0378C256.372 32.9581 256.925 33.8672 257.497 34.7645L257.85 33.9116C258.904 35.4018 259.987 36.8848 260.937 38.442C258.772 38.8399 257.748 37.9921 255.854 36.8762Z"/><path fill="#E7D5D3" fill-opacity="0.027450981" transform="scale(2 2)" d="M703.317 235.826L704.692 233.851L705.502 233.734L707.682 235.552C707.847 235.929 707.971 237.646 708.021 238.17L707.483 238.522C704.816 237.635 705.351 237.758 703.317 235.826Z"/><path fill="#E7D5D3" fill-opacity="0.10980392" transform="scale(2 2)" d="M799.091 245.158L799.581 243.846C800.988 242.721 801.78 242.933 803.673 243.106L803.147 243.844L804.517 244.493L803.576 244.276L803.658 244.627L799.091 245.158Z"/></svg>