<?xml version="1.0" encoding="utf-8" ?><svg xmlns="http://www.w3.org/2000/svg" xmlns:xlink="http://www.w3.org/1999/xlink" width="2000" height="2000" viewBox="0 0 2000 2000"><defs><linearGradient id="gradient_0" gradientUnits="userSpaceOnUse" x1="157.998" y1="263.63101" x2="143.164" y2="108.19"><stop offset="0" stop-color="#CF3E1A"/><stop offset="1" stop-color="#EC7C1B"/></linearGradient></defs><path fill="url(#gradient_0)" transform="scale(1.95312 1.86567)" d="M305.803 328.125C311.672 323.637 322.998 318.468 329.815 315.308C362.984 299.919 400.269 295.319 436.754 297.707C501.872 303.003 555.277 330.243 597.836 380.215C622.196 408.982 638.477 443.704 645.016 480.831C649.746 507.915 649.087 502.417 627.46 516.903C622.993 519.892 615.306 526.967 611.191 530.733C563.997 574.679 533.989 633.995 526.538 698.057C526.311 700.114 526.112 702.174 525.946 704.237C516.626 712.768 507.248 718.058 496.247 723.844C464.517 740.544 441.173 743.679 405.981 742.147C347.122 739.941 291.697 713.871 252.454 669.935C226.915 641.898 210.45 607.687 201.545 570.91C197.729 555.15 197.9 540.445 197.295 524.093C194.452 447.296 234.43 375.318 297.776 333.036C300.318 331.338 303.115 329.517 305.803 328.125ZM434.437 655.16C508.855 648.327 563.61 582.385 556.669 507.954C549.731 433.526 483.732 378.848 409.333 385.898C335.084 392.93 280.556 458.785 287.48 533.067C294.407 607.347 360.167 661.982 434.437 655.16Z"/><path fill="#F19033" transform="scale(1.95312 1.86567)" d="M305.803 328.125C311.672 323.637 322.998 318.468 329.815 315.308C362.984 299.919 400.269 295.319 436.754 297.707C439.386 299.158 442.194 299.964 442.901 302.178C441.942 305.739 438.718 309.516 434.824 309.603C418.404 309.971 401.882 310.947 385.622 313.321C359.957 316.989 336.77 327.328 313.552 338.432C310.743 336.03 313.79 332.676 307.057 332.208L306.493 332.166C306.078 332.146 305.66 332.126 305.242 332.107L304.689 330.718C305.362 329.5 305.576 329.413 305.803 328.125Z"/><defs><linearGradient id="gradient_1" gradientUnits="userSpaceOnUse" x1="189.03799" y1="350.42899" x2="192.541" y2="180.52901"><stop offset="0" stop-color="#BA1D1C"/><stop offset="1" stop-color="#E9771D"/></linearGradient></defs><path fill="url(#gradient_1)" transform="scale(1.95312 1.86567)" d="M638.53 543.577C643.367 538.84 655.826 530.887 661.605 527.32C692.572 507.982 728.075 499.26 764.011 496.072C788.923 493.502 813.755 491.055 835.643 477.705C839.93 475.09 849.227 469.087 853.907 470.28C864.915 477.938 858.903 514.515 855.239 525.14C841.338 573.178 799.152 579.138 756.416 585.492C703.466 593.363 665.042 637.955 657.972 690.219C651.721 755.959 649.443 808.992 618.359 868.794C541.101 1017.43 307.851 1022.72 226.982 874.769C202.656 830.264 233.61 791.557 282.893 802.698C299.339 806.416 305.096 824.952 312.309 837.529C344.85 891.085 420.381 908.632 475.706 882.986C538.764 853.758 549.882 791.944 557.202 729.614C563.82 673.253 575.196 614.896 612.273 570.049C616.633 564.706 633.188 546.493 638.53 543.577Z"/><path fill="#F19033" transform="scale(1.95312 1.86567)" d="M638.53 543.577C643.367 538.84 655.826 530.887 661.605 527.32C692.572 507.982 728.075 499.26 764.011 496.072C788.923 493.502 813.755 491.055 835.643 477.705C839.93 475.09 849.227 469.087 853.907 470.28C864.915 477.938 858.903 514.515 855.239 525.14C850.852 520.549 822.836 520.927 815.598 519.973C812.102 519.51 807.092 520.22 803.38 519.216C796.56 518.677 774.562 511.237 770.18 512.368C759.104 515.225 758.125 510.561 747.551 511.973C709.029 517.108 677.481 531.813 646.318 554.94C646.183 552.608 650.431 551.785 649.081 548.524C647.925 545.738 646.248 542.926 643.176 542.109L642.73 542.323C640.786 543.221 640.623 543.254 638.53 543.577Z"/><defs><linearGradient id="gradient_2" gradientUnits="userSpaceOnUse" x1="171.504" y1="136.42" x2="165.68201" y2="16.5033"><stop offset="0" stop-color="#DB5417"/><stop offset="1" stop-color="#ED8529"/></linearGradient></defs><path fill="url(#gradient_2)" transform="scale(1.95312 1.86567)" d="M466.478 45.0871C490.213 43.5358 498.722 53.7642 516.797 67.2388L554.239 95.0954L600.462 129.454C609.434 136.093 619.624 143.172 628.141 150.247C628.963 134.745 627.061 116.518 630.063 101.645C630.461 99.68 633.531 95.3999 634.981 93.8379C640.673 87.707 644.264 85.0781 652.852 84.9293C672.016 84.5974 691.026 84.6975 710.21 84.6933C721.157 85.1774 733.599 83.8268 744.341 85.2063C754.539 86.5163 764.746 97.3564 766.334 107.299C768.452 120.541 767.004 133.665 767.402 146.852C768.368 178.933 766.148 212.104 767.907 244.055L830.012 288.028C842.056 296.444 854.644 304.709 866.032 313.97C873.884 320.685 877.099 325.518 878.095 335.679C879.756 352.598 867.797 365.796 850.947 366.607C837.057 367.275 820.496 352.259 809.288 344L773.692 317.969L742.832 295.378C734.907 289.575 716.174 277.478 714.46 267.861C711.66 252.16 713.212 234.146 713.088 218.045C712.878 190.444 713.84 162.643 713.052 135.058C708.501 134.104 677.737 131.754 676.805 136.959C673.991 152.657 676.522 171.177 675.781 187.34C675.478 193.884 676.275 200.303 675.026 206.899C674.406 210.227 673.085 213.384 671.149 216.161C664.497 225.717 647.712 231.008 637.764 226.454C622.065 219.27 603.47 204.824 589.294 194.951C584.494 192.275 569.56 180.818 564.053 176.926L511.192 139.737C498.879 131.045 488.978 123.196 475.807 115.615C464.526 117.925 432.981 140.452 421.551 148.13L364.09 186.51L186.993 304.869C167.479 317.941 138.824 338.668 117.364 348.086C112.169 350.364 100.002 347.912 94.1634 344.12C86.8711 339.341 81.7895 331.846 80.0465 323.301C78.6937 316.335 79.8532 304.928 84.6138 299.863C100.025 283.457 125.326 268.555 143.859 256.114L241.309 190.845C286.122 160.063 331.265 129.764 376.731 99.9545C401.433 83.4709 425.962 66.3661 451.242 50.7393C456.673 47.3821 460.287 46.1201 466.478 45.0871Z"/></svg>