<?xml version="1.0" encoding="utf-8" ?><svg xmlns="http://www.w3.org/2000/svg" xmlns:xlink="http://www.w3.org/1999/xlink" width="730" height="764" viewBox="0 0 730 764"><defs><linearGradient id="gradient_0" gradientUnits="userSpaceOnUse" x1="157.99774" y1="263.63092" x2="143.16356" y2="108.18974"><stop offset="0" stop-color="#CF3E1A"/><stop offset="1" stop-color="#EC7C1B"/></linearGradient></defs><path fill="url(#gradient_0)" transform="scale(2 2)" d="M109.002 116.925C111.094 115.326 115.131 113.484 117.561 112.358C129.384 106.874 142.674 105.235 155.679 106.086C178.89 107.973 197.926 117.68 213.096 135.487C221.779 145.738 227.582 158.111 229.913 171.341C231.599 180.992 231.364 179.033 223.655 184.195C222.063 185.26 219.323 187.781 217.856 189.123C201.034 204.783 190.338 225.92 187.682 248.748C187.601 249.481 187.53 250.215 187.471 250.95C184.149 253.99 180.806 255.875 176.885 257.937C165.575 263.888 157.254 265.005 144.71 264.459C123.73 263.673 103.974 254.383 89.9862 238.727C80.8827 228.736 75.014 216.545 71.8397 203.44C70.4794 197.824 70.5405 192.584 70.3248 186.757C69.3115 159.391 83.5613 133.742 106.141 118.675C107.047 118.07 108.044 117.421 109.002 116.925ZM154.853 233.462C181.379 231.027 200.896 207.529 198.422 181.006C195.949 154.484 172.424 135 145.905 137.512C119.439 140.018 100.003 163.485 102.471 189.955C104.94 216.424 128.38 235.893 154.853 233.462Z"/><path fill="#F19033" transform="scale(2 2)" d="M109.002 116.925C111.094 115.326 115.131 113.484 117.561 112.358C129.384 106.874 142.674 105.235 155.679 106.086C156.617 106.603 157.618 106.89 157.87 107.679C157.528 108.948 156.379 110.294 154.991 110.325C149.138 110.456 143.249 110.804 137.453 111.65C128.305 112.957 120.04 116.641 111.764 120.598C110.763 119.742 111.849 118.547 109.449 118.38L109.248 118.365C109.1 118.358 108.951 118.351 108.802 118.344L108.605 117.849C108.845 117.415 108.921 117.384 109.002 116.925Z"/><defs><linearGradient id="gradient_1" gradientUnits="userSpaceOnUse" x1="189.03758" y1="350.42859" x2="192.54062" y2="180.52922"><stop offset="0" stop-color="#BA1D1C"/><stop offset="1" stop-color="#E9771D"/></linearGradient></defs><path fill="url(#gradient_1)" transform="scale(2 2)" d="M227.601 193.7C229.325 192.012 233.766 189.178 235.826 187.907C246.864 181.016 259.519 177.908 272.328 176.772C281.208 175.856 290.059 174.984 297.861 170.227C299.389 169.295 302.703 167.156 304.371 167.581C308.295 170.31 306.152 183.344 304.846 187.13C299.891 204.248 284.854 206.372 269.621 208.636C250.747 211.441 237.051 227.331 234.531 245.955C232.303 269.381 231.491 288.279 220.411 309.589C192.873 362.554 109.732 364.439 80.9066 311.718C72.2356 295.859 83.2691 282.066 100.836 286.036C106.698 287.361 108.75 293.966 111.321 298.448C122.92 317.532 149.843 323.785 169.563 314.646C192.04 304.231 196.003 282.204 198.612 259.993C200.971 239.909 205.026 219.114 218.242 203.133C219.796 201.229 225.697 194.739 227.601 193.7Z"/><path fill="#F19033" transform="scale(2 2)" d="M227.601 193.7C229.325 192.012 233.766 189.178 235.826 187.907C246.864 181.016 259.519 177.908 272.328 176.772C281.208 175.856 290.059 174.984 297.861 170.227C299.389 169.295 302.703 167.156 304.371 167.581C308.295 170.31 306.152 183.344 304.846 187.13C303.282 185.494 293.296 185.629 290.716 185.289C289.47 185.124 287.684 185.377 286.361 185.019C283.93 184.827 276.089 182.176 274.527 182.579C270.579 183.597 270.23 181.935 266.461 182.438C252.73 184.268 241.485 189.508 230.377 197.749C230.329 196.918 231.843 196.625 231.362 195.463C230.95 194.47 230.352 193.468 229.257 193.177L229.098 193.253C228.405 193.573 228.347 193.585 227.601 193.7Z"/><defs><linearGradient id="gradient_2" gradientUnits="userSpaceOnUse" x1="171.50354" y1="136.42049" x2="165.68164" y2="16.503319"><stop offset="0" stop-color="#DB5417"/><stop offset="1" stop-color="#ED8529"/></linearGradient></defs><path fill="url(#gradient_2)" transform="scale(2 2)" d="M166.274 16.0665C174.734 15.5137 177.767 19.1585 184.21 23.9601L197.556 33.8866L214.032 46.1299C217.23 48.4957 220.862 51.0185 223.898 53.5396C224.191 48.0155 223.513 41.5204 224.583 36.2206C224.725 35.5203 225.819 33.9951 226.336 33.4385C228.365 31.2538 229.645 30.317 232.706 30.264C239.537 30.1457 246.313 30.1814 253.151 30.1799C257.053 30.3524 261.488 29.8711 265.317 30.3627C268.952 30.8295 272.59 34.6923 273.156 38.2353C273.911 42.9538 273.395 47.6307 273.537 52.3299C273.881 63.7615 273.09 75.582 273.717 86.9672L295.854 102.637C300.147 105.636 304.634 108.581 308.693 111.881C311.492 114.274 312.638 115.996 312.993 119.617C313.585 125.646 309.322 130.349 303.316 130.638C298.365 130.876 292.462 125.525 288.467 122.582L275.779 113.306L264.779 105.256C261.954 103.188 255.277 98.8774 254.666 95.4506C253.668 89.8556 254.221 83.4363 254.177 77.6987C254.102 67.8635 254.445 57.9567 254.164 48.1269C252.542 47.7872 241.576 46.9495 241.244 48.8045C240.241 54.3983 241.143 60.9977 240.879 66.7572C240.771 69.0893 241.055 71.3768 240.61 73.727C240.389 74.9129 239.918 76.038 239.228 77.0274C236.857 80.4326 230.874 82.318 227.328 80.6954C221.732 78.1354 215.104 72.9875 210.051 69.4694C208.34 68.5158 203.017 64.4334 201.054 63.0465L182.212 49.7942C177.823 46.697 174.294 43.8999 169.599 41.1988C165.578 42.0219 154.334 50.049 150.26 52.7852L129.778 66.4616L66.6527 108.638C59.6972 113.296 49.4833 120.682 41.8338 124.038C39.9821 124.85 35.6452 123.976 33.5641 122.625C30.9648 120.922 29.1535 118.251 28.5322 115.206C28.05 112.724 28.4633 108.659 30.1602 106.854C35.6534 101.008 44.6717 95.6979 51.278 91.2645L86.0135 68.0063C101.987 57.0373 118.078 46.2406 134.284 35.6181C143.089 29.7443 151.832 23.6491 160.843 18.0806C162.779 16.8843 164.067 16.4346 166.274 16.0665Z"/></svg>